<svg width="800" height="600" viewBox="0 0 800 600" fill="none" xmlns="http://www.w3.org/2000/svg">
    <circle cx="400" cy="300" r="250" fill="#25D366" fill-opacity="0.1"/>
    <circle cx="500" cy="200" r="100" fill="#128C7E" fill-opacity="0.1"/>
    <circle cx="300" cy="400" r="80" fill="#075E54" fill-opacity="0.1"/>
    <path d="M400 100C400 44.7715 444.772 0 500 0C555.228 0 600 44.7715 600 100C600 155.228 555.228 200 500 200C444.772 200 400 155.228 400 100Z" fill="#25D366" fill-opacity="0.1"/>
    <path d="M200 500C200 444.772 244.772 400 300 400C355.228 400 400 444.772 400 500C400 555.228 355.228 600 300 600C244.772 600 200 555.228 200 500Z" fill="#25D366" fill-opacity="0.1"/>
</svg>
